<?xml version="1.0" ?><svg data-name="Layer 1" id="Layer_1" viewBox="0 0 272 272" xmlns="http://www.w3.org/2000/svg"><defs><style>.cls-1{fill:#fec107;}.cls-2{fill:#ffd54f;}</style></defs><title/><path class="cls-1" d="M141.78,219.66,202,262.09c8.62,6.07,19.31-3.32,16-14l-21.71-69.58a12.63,12.63,0,0,1,4.64-14.19l57.85-38.52c8.91-5.93,5.86-21-4.47-22.18l-76-8.44a11.06,11.06,0,0,1-9.08-7.88l-23-71.33c-3.41-10.58-16.89-10.58-20.31,0l-23,71.33a11.06,11.06,0,0,1-9.08,7.88l-76,8.44c-10.33,1.15-13.38,16.25-4.47,22.18l57.85,38.52a12.63,12.63,0,0,1,4.64,14.19L54,248.06c-3.34,10.71,7.35,20.1,16,14l60.22-42.43A9.89,9.89,0,0,1,141.78,219.66Z"/><circle class="cls-2" cx="136" cy="28" r="6"/><circle class="cls-2" cx="136" cy="60" r="6"/><circle class="cls-2" cx="136" cy="92" r="6"/><circle class="cls-2" cx="136" cy="148" r="6"/><circle class="cls-2" cx="108" cy="188" r="6"/><circle class="cls-2" cx="92" cy="132" r="6"/><circle class="cls-2" cx="28" cy="116" r="6"/><circle class="cls-2" cx="60" cy="124" r="6"/><circle class="cls-2" cx="244" cy="116" r="6"/><circle class="cls-2" cx="180" cy="132" r="6"/><circle class="cls-2" cx="212" cy="124" r="6"/><circle class="cls-2" cx="92" cy="212" r="6"/><circle class="cls-2" cx="76" cy="236" r="6"/><circle class="cls-2" cx="196" cy="236" r="6"/><circle class="cls-2" cx="180" cy="212" r="6"/><circle class="cls-2" cx="164" cy="188" r="6"/></svg>