<?xml version="1.0" ?><svg data-name="Layer 1" id="Layer_1" viewBox="0 0 272 272" xmlns="http://www.w3.org/2000/svg"><defs><style>.cls-1{fill:#574c4d;}.cls-2{fill:#fec107;}</style></defs><title/><circle class="cls-1" cx="36" cy="120" r="6"/><circle class="cls-1" cx="68" cy="128" r="6"/><circle class="cls-1" cx="80" cy="232" r="6"/><circle class="cls-1" cx="96" cy="208" r="6"/><circle class="cls-1" cx="100" cy="136" r="6"/><circle class="cls-1" cx="112" cy="184" r="6"/><circle class="cls-1" cx="136" cy="148" r="6"/><circle class="cls-1" cx="136" cy="106" r="6"/><circle class="cls-1" cx="136" cy="74" r="6"/><circle class="cls-1" cx="136" cy="42" r="6"/><circle class="cls-1" cx="158" cy="184" r="6"/><circle class="cls-1" cx="172" cy="136" r="6"/><circle class="cls-1" cx="174" cy="208" r="6"/><circle class="cls-1" cx="190" cy="232" r="6"/><circle class="cls-1" cx="204" cy="128" r="6"/><circle class="cls-1" cx="236" cy="120" r="6"/><path class="cls-1" d="M254.28,103.59l-76-8.45a11.06,11.06,0,0,1-9.08-7.87l-23-71.33c-3.41-10.59-16.89-10.59-20.3,0l-23,71.33a11.06,11.06,0,0,1-9.08,7.87l-76,8.45c-10.33,1.15-13.38,16.25-4.47,22.18l57.84,38.52a12.64,12.64,0,0,1,4.65,14.19L54,248.06c-3.34,10.71,7.35,20.1,16,14l60.22-42.43a9.88,9.88,0,0,1,11.56,0L202,262.09c8.63,6.07,19.32-3.32,16-14l-21.72-69.58a12.64,12.64,0,0,1,4.65-14.19l57.84-38.52C267.66,119.84,264.61,104.74,254.28,103.59Zm0,15.52-57.85,38.52a20.58,20.58,0,0,0-7.85,23.23l21.72,69.58a4.65,4.65,0,0,1-.59,4.3,2.73,2.73,0,0,1-2,1.26,2.11,2.11,0,0,1-1.16-.45l-60.22-42.43a17.87,17.87,0,0,0-20.78,0L65.39,255.55a2,2,0,0,1-1.16.45,2.73,2.73,0,0,1-2-1.26,4.65,4.65,0,0,1-.59-4.3l21.71-69.58a20.56,20.56,0,0,0-7.84-23.23L17.68,119.11c-1.71-1.14-1.89-3.33-1.52-4.86.19-.75.79-2.53,2.45-2.71l76-8.45a19.1,19.1,0,0,0,15.81-13.37l23-71.33C134,16.85,134.86,16,136,16s2,.85,2.54,2.39l23,71.33a19.1,19.1,0,0,0,15.81,13.37l76,8.45c1.66.18,2.27,2,2.45,2.71C256.21,115.78,256,118,254.32,119.11Z"/><circle class="cls-2" cx="36" cy="120" r="6"/><circle class="cls-2" cx="68" cy="128" r="6"/><circle class="cls-2" cx="80" cy="232" r="6"/><circle class="cls-2" cx="96" cy="208" r="6"/><circle class="cls-2" cx="100" cy="136" r="6"/><circle class="cls-2" cx="112" cy="184" r="6"/><circle class="cls-2" cx="136" cy="148" r="6"/><circle class="cls-2" cx="136" cy="106" r="6"/><circle class="cls-2" cx="136" cy="74" r="6"/><circle class="cls-2" cx="136" cy="42" r="6"/><circle class="cls-2" cx="158" cy="184" r="6"/><circle class="cls-2" cx="172" cy="136" r="6"/><circle class="cls-2" cx="174" cy="208" r="6"/><circle class="cls-2" cx="190" cy="232" r="6"/><circle class="cls-2" cx="204" cy="128" r="6"/><circle class="cls-2" cx="236" cy="120" r="6"/><circle class="cls-1" cx="136" cy="42" r="6"/><circle class="cls-1" cx="136" cy="74" r="6"/><circle class="cls-1" cx="136" cy="106" r="6"/><circle class="cls-1" cx="136" cy="148" r="6"/><circle class="cls-1" cx="112" cy="184" r="6"/><circle class="cls-1" cx="100" cy="136" r="6"/><circle class="cls-1" cx="36" cy="120" r="6"/><circle class="cls-1" cx="68" cy="128" r="6"/><circle class="cls-1" cx="236" cy="120" r="6"/><circle class="cls-1" cx="172" cy="136" r="6"/><circle class="cls-1" cx="204" cy="128" r="6"/><circle class="cls-1" cx="96" cy="208" r="6"/><circle class="cls-1" cx="80" cy="232" r="6"/><circle class="cls-1" cx="190" cy="232" r="6"/><circle class="cls-1" cx="174" cy="208" r="6"/><circle class="cls-1" cx="158" cy="184" r="6"/></svg>